<svg width="297" height="210" xmlns="http://www.w3.org/2000/svg" clip-rule="evenodd" xml:space="preserve">

 <symbol viewBox="422.125 -232.286 6.9191 6.9186" id="Fm16-33-0">
  <polygon id="svg_1" fill="#25B1EF" points="429.044,-232.286 422.125,-232.286 429.044,-225.367 " class="fil0"/>
 </symbol>
 <g>
  <title>Layer 1</title>
  <g stroke="null" id="图层_x0020_1">
   <metadata stroke="null" id="CorelCorpID_0Corel-Layer"/>
   <g stroke="null" id="_191783288">
    <path stroke="null" fill-rule="nonzero" fill="#1F1A17" d="m46.39791,194.24252l-9.46581,0c-0.88642,1.00164 -1.92324,1.87899 -3.10823,2.64997c-1.18595,0.76308 -2.47398,1.3569 -3.86441,1.79086c-1.39171,0.43427 -2.83846,0.65581 -4.3409,0.66492c-1.9978,-0.00912 -3.87401,-0.37227 -5.60972,-1.07245c-1.74628,-0.7096 -3.27623,-1.6848 -4.6017,-2.93442c-1.31715,-1.24962 -2.35269,-2.70376 -3.09959,-4.36121c-0.7469,-1.65714 -1.12963,-3.43919 -1.13923,-5.35465c0.0096,-1.90512 0.39233,-3.67805 1.13923,-5.3273c0.7469,-1.65745 1.78244,-3.11159 3.09959,-4.37033c1.32547,-1.24932 2.85542,-2.23394 4.6017,-2.94323c1.73572,-0.7096 3.61192,-1.07275 5.60972,-1.08187c1.50243,0.00912 2.94919,0.22276 4.3505,0.6476c1.40003,0.42606 2.6967,1.01106 3.88265,1.77293c1.18595,0.75366 2.21189,1.63101 3.08039,2.63265l9.46581,0c-0.8877,-1.86987 -2.03525,-3.58081 -3.44488,-5.14101c-1.40003,-1.55108 -3.01543,-2.89917 -4.82539,-4.03331c-1.81156,-1.14326 -3.77192,-2.02182 -5.88173,-2.64207c-2.10949,-0.62937 -4.3217,-0.93995 -6.62735,-0.94785c-2.50182,0.0079 -4.87243,0.37227 -7.12272,1.09889c-2.24933,0.72631 -4.3121,1.74619 -6.1979,3.0575c-1.87652,1.32164 -3.50024,2.86361 -4.88235,4.65477c-1.38051,1.78174 -2.45477,3.74065 -3.20999,5.87674c-0.7661,2.137 -1.14883,4.38826 -1.15843,6.74588c0.0096,2.38498 0.39233,4.64535 1.15843,6.79055c0.75522,2.15432 1.82948,4.12235 3.20999,5.91321c1.38211,1.79906 3.00583,3.35015 4.88235,4.67058c1.8858,1.32164 3.94857,2.34061 6.1979,3.06813c2.25029,0.71719 4.6209,1.08947 7.12272,1.09889c2.31557,-0.00942 4.53706,-0.31879 6.65519,-0.94025c2.11909,-0.62025 4.08937,-1.50641 5.89965,-2.64997c1.81124,-1.14326 3.41704,-2.50836 4.80747,-4.08679c1.40003,-1.57752 2.53894,-3.32401 3.41704,-5.24737zm12.24187,-2.81894c-0.00832,-0.86033 0.0192,-1.70212 0.09376,-2.52659c0.06496,-0.83389 0.21536,-1.6222 0.45697,-2.36674c0.24321,-0.74485 0.61729,-1.41859 1.12963,-2.02182c0.51361,-0.59381 1.21347,-1.09889 2.09157,-1.48818c0.87682,-0.39993 1.9978,-0.66492 3.34119,-0.79864l0,-7.49985c-0.94274,0.05379 -1.89412,0.23096 -2.84678,0.52331c-0.96098,0.29235 -1.87652,0.68285 -2.76294,1.17061c-0.88642,0.47864 -1.68036,1.0372 -2.39941,1.65745l0,-2.55273l-7.11216,0l0,31.16787l8.00818,0l0,-15.26469zm36.27089,15.26469l8.00946,0l0,-31.16787l-8.00946,0l0,2.0206c-1.12931,-0.93114 -2.46437,-1.63131 -4.00521,-2.10995c-1.53955,-0.46922 -3.20999,-0.70929 -5.01195,-0.70929c-1.90404,0.00912 -3.70568,0.28445 -5.42316,0.82477c-1.7178,0.54154 -3.28615,1.31253 -4.71498,2.29593c-1.43747,0.99252 -2.67878,2.16343 -3.73352,3.51911c-1.04514,1.3569 -1.8666,2.84659 -2.44517,4.46849c-0.57857,1.63101 -0.8685,3.35015 -0.8781,5.16745c0.0096,1.80909 0.29953,3.52823 0.8781,5.17747c0.57857,1.64833 1.40003,3.16416 2.44517,4.54719c1.05474,1.38333 2.29605,2.58828 3.73352,3.61636c1.42883,1.0293 2.99719,1.82641 4.71498,2.39409c1.71748,0.56677 3.51912,0.85091 5.42316,0.86003c1.19427,-0.00912 2.34309,-0.15073 3.43528,-0.44308c1.09218,-0.28445 2.10949,-0.67374 3.04295,-1.17061c0.94306,-0.49596 1.79204,-1.05452 2.53894,-1.68389l0,2.39318zm-9.29749,-24.09408c1.25091,0.00912 2.43685,0.23066 3.52904,0.67374c1.1005,0.43427 2.07109,1.04631 2.90246,1.83462c0.84066,0.7801 1.50339,1.6848 1.96996,2.72169c0.47521,1.02808 0.7181,2.1452 0.7277,3.33313c-0.0096,1.18793 -0.25249,2.31417 -0.7277,3.35927c-0.46657,1.04631 -1.12931,1.97715 -1.96996,2.77548c-0.83138,0.80654 -1.80196,1.43591 -2.90246,1.88811c-1.09218,0.4604 -2.27813,0.69106 -3.52904,0.70018c-1.25091,-0.00912 -2.42693,-0.23977 -3.51912,-0.70018c-1.09218,-0.4522 -2.05317,-1.08157 -2.88422,-1.88811c-0.83138,-0.79833 -1.48451,-1.72917 -1.95108,-2.77548c-0.47617,-1.0451 -0.70946,-2.17134 -0.71938,-3.35927c0.00992,-1.18793 0.24321,-2.30505 0.71938,-3.33313c0.46657,-1.03689 1.1197,-1.94159 1.95108,-2.72169c0.83106,-0.78831 1.79204,-1.40035 2.88422,-1.83462c1.09218,-0.44308 2.26821,-0.66462 3.51912,-0.67374zm39.40568,17.55242c-1.32547,-0.00912 -2.56678,-0.24889 -3.71432,-0.72753c-1.15811,-0.46952 -2.17573,-1.12624 -3.05255,-1.96803c-0.8685,-0.83267 -1.55875,-1.79906 -2.05445,-2.88975c-0.49441,-1.09889 -0.74562,-2.2698 -0.75522,-3.5103c0.0096,-1.25874 0.26081,-2.42934 0.75522,-3.51c0.49569,-1.07245 1.18595,-2.02182 2.05445,-2.83717c0.87682,-0.80654 1.89444,-1.44503 3.05255,-1.89722c1.14755,-0.45129 2.38885,-0.68194 3.71432,-0.69106c1.57796,0 3.01543,0.29235 4.29386,0.86003c1.28803,0.57558 2.36229,1.42679 3.21127,2.54361l8.84916,0c-0.59681,-1.55108 -1.43747,-2.97879 -2.52006,-4.2901c-1.07266,-1.31222 -2.34309,-2.44667 -3.78984,-3.42217c-1.44707,-0.97429 -3.02375,-1.72795 -4.72331,-2.26949c-1.70788,-0.53121 -3.482,-0.80654 -5.32108,-0.81566c-1.92196,0.00912 -3.75144,0.28445 -5.47884,0.82477c-1.73668,0.54154 -3.32327,1.31253 -4.77003,2.30505c-1.44707,0.99252 -2.69798,2.16343 -3.76232,3.51911c-1.05506,1.35598 -1.88484,2.85449 -2.46341,4.4855c-0.57953,1.64043 -0.8781,3.36838 -0.8877,5.1948c0.0096,1.82641 0.30817,3.56379 0.8877,5.21212c0.57857,1.64924 1.40835,3.16508 2.46341,4.53929c1.06434,1.37391 2.31525,2.56974 3.76232,3.58992c1.44675,1.01076 3.03335,1.79906 4.77003,2.34942c1.7274,0.55765 3.55688,0.84179 5.47884,0.85091c1.91364,-0.00912 3.74408,-0.31058 5.4894,-0.89528c1.74532,-0.585 3.35111,-1.40035 4.81579,-2.45578c1.46627,-1.05543 2.73542,-2.28682 3.80936,-3.69629c1.07298,-1.40947 1.89444,-2.94354 2.46437,-4.60098l-8.56979,0c-0.60609,0.90348 -1.31587,1.66657 -2.14693,2.29593c-0.83938,0.62025 -1.74532,1.09889 -2.74342,1.41859c-0.98978,0.3279 -2.02661,0.48775 -3.11879,0.48775zm21.14959,6.54166l8.00818,0l0,-12.6056l10.81048,12.6056l10.24887,0l-13.16189,-15.84969l11.70554,-15.31818l-9.24117,0l-10.36183,12.97787l0,-22.76454l-8.00818,0l0,40.95453zm33.58155,0l8.2885,0l0,-26.75317l19.04234,26.75317l7.67377,0l0,-42.12423l-8.28946,0l0,26.80575l-19.26635,-26.80575l-7.44881,0l0,42.12423zm40.91867,-14.36121c-0.0096,0.79833 0.01792,1.69392 0.07456,2.67732c0.06496,0.99252 0.21408,2.02182 0.43905,3.09427c0.23329,1.06333 0.60609,2.11876 1.1101,3.14684c0.50401,1.0372 1.19427,1.99416 2.07237,2.87151c0.88642,0.88646 2.0074,1.63101 3.36071,2.25248c1.04514,0.47864 2.17445,0.80654 3.38824,0.99252c1.21347,0.18629 2.44517,0.20331 3.71528,0.06169c1.26051,-0.14162 2.49222,-0.4522 3.68648,-0.93873c1.19555,-0.49687 2.30565,-1.17091 3.32327,-2.03094l0,2.23424l7.16976,0l0,-31.16787l-8.06578,0l0,14.57363c0.0096,0.788 0.0192,1.63101 0.0096,2.50836c0,0.87704 -0.06496,1.74619 -0.20576,2.5974c-0.13952,0.85091 -0.40033,1.64013 -0.79266,2.35732c-0.39201,0.71871 -0.98018,1.31253 -1.7546,1.79116c-0.66273,0.35404 -1.35459,0.59381 -2.08197,0.71841c-0.71938,0.11548 -1.42915,0.1325 -2.10981,0.03556c-0.69058,-0.09846 -1.30755,-0.29265 -1.857,-0.59412c-0.97186,-0.55856 -1.69956,-1.24172 -2.19397,-2.05707c-0.50401,-0.81566 -0.84066,-1.67568 -1.01762,-2.57916c-0.16832,-0.9047 -0.26209,-1.78205 -0.27073,-2.62384c-0.0096,-0.85091 0,-1.58755 0.00864,-2.2078l0,-14.51984l-8.00818,0l0,16.80666zm35.9896,-16.80666l-3.5844,0l0,7.28621l3.5844,0l0,23.88166l8.00946,0l0,-23.88166l4.4801,0l0,-7.28621l-4.4801,0l0,-9.78666l-8.00946,0l0,9.78666zm31.06181,0.10606c-1.02594,-0.4522 -2.12773,-0.73543 -3.32199,-0.86003c-1.19555,-0.11548 -2.38053,-0.04467 -3.56648,0.22154c-1.17635,0.27533 -2.25861,0.76308 -3.24871,1.48939c-0.83938,0.62025 -1.52131,1.29429 -2.06277,2.03884c-0.54113,0.73573 -0.95234,1.49881 -1.25091,2.28682c-0.28961,0.78922 -0.48577,1.5602 -0.58817,2.32328c-0.09376,0.76187 -0.12128,1.47116 -0.07456,2.12697c0.1312,1.28609 0.43905,2.39409 0.92386,3.32493c0.49569,0.93083 1.19555,1.75439 2.10981,2.46368c0.91522,0.70929 2.07237,1.3651 3.46376,1.97715c0.50401,0.22184 1.08258,0.4525 1.72612,0.69106c0.64481,0.24008 1.28803,0.52331 1.91364,0.83389c0.62529,0.30967 1.16675,0.68194 1.625,1.11712c0.44737,0.43396 0.7277,0.95727 0.83938,1.55929c0.07456,0.32882 0.07456,0.65672 -0.0096,1.00164c-0.07456,0.34614 -0.21408,0.66462 -0.40993,0.97551c-0.20576,0.31058 -0.45729,0.56768 -0.75682,0.78922c-0.31745,0.2571 -0.65281,0.43396 -0.9885,0.51389c-0.33697,0.07992 -0.65441,0.10636 -0.95266,0.07081c-0.30785,-0.02614 -0.57857,-0.07992 -0.80226,-0.15985c-0.68194,-0.22944 -1.19555,-0.54033 -1.53123,-0.93083c-0.34497,-0.38959 -0.57857,-0.84179 -0.70946,-1.3651c-0.1216,-0.523 -0.19616,-1.108 -0.22368,-1.74649l-7.67377,0c0,1.36632 0.15872,2.63295 0.46657,3.80387c0.31745,1.16939 0.79394,2.22482 1.43843,3.16386c0.8493,1.07245 1.80068,1.92457 2.8471,2.55394c1.04514,0.62937 2.11813,1.08065 3.22951,1.33745c1.1101,0.26621 2.18437,0.39081 3.21991,0.36437c1.10178,-0.02735 2.18405,-0.20422 3.23047,-0.5151c1.04546,-0.31848 2.04357,-0.81535 2.98663,-1.48818c0.95266,-0.67404 1.82948,-1.56932 2.6327,-2.67732c0.63393,-0.93114 1.09218,-1.94189 1.37123,-3.00523c0.28993,-1.07245 0.41153,-2.12788 0.37409,-3.17328c-0.04672,-1.04601 -0.23329,-2.00328 -0.56993,-2.86331c-0.36321,-0.89558 -0.77474,-1.65745 -1.22211,-2.27892c-0.43905,-0.62025 -0.94306,-1.14326 -1.49379,-1.57722c-0.56065,-0.44338 -1.18595,-0.83389 -1.88612,-1.17881c-0.69026,-0.34614 -1.47459,-0.70018 -2.34309,-1.04631c-0.86722,-0.35525 -1.83876,-0.75397 -2.91174,-1.20616c-0.7277,-0.28323 -1.29795,-0.62025 -1.71748,-0.99283c-0.41025,-0.37227 -0.66273,-0.82447 -0.74722,-1.34656c-0.07456,-0.42606 -0.04672,-0.81566 0.09408,-1.16149c0.13952,-0.34614 0.34497,-0.64791 0.63361,-0.9129c0.28993,-0.26591 0.63521,-0.4443 1.01762,-0.523c0.39233,-0.08904 0.7661,-0.08904 1.11138,-0.00912c0.47649,0.1325 0.8685,0.33702 1.16675,0.61113c0.29825,0.28445 0.53153,0.60293 0.70978,0.94907c0.16832,0.35404 0.30785,0.70018 0.41953,1.04631l7.28176,0c-0.1216,-0.97551 -0.29953,-1.88811 -0.52321,-2.74813c-0.23329,-0.86003 -0.56065,-1.64955 -0.98018,-2.37586c-0.41985,-0.73573 -0.9709,-1.39245 -1.66116,-1.97715c-0.69154,-0.585 -1.55875,-1.08977 -2.60518,-1.51583z" class="fil1" id="_191764160"/>
    <g stroke="null" id="svg_2">
     <path stroke="null" fill-rule="nonzero" fill="#1F1A17" d="m91.86452,65.57512c0.26497,-2.36705 2.50022,-4.08163 4.99275,-3.83c2.49222,0.25163 4.2977,2.37434 4.03305,4.74108c-0.016,0.14101 -6.06765,48.62183 45.58085,69.26152c9.01652,-3.34559 53.50487,-22.28347 48.19659,-68.66437c-0.26497,-2.36674 1.54083,-4.48945 4.03305,-4.74108c2.49222,-0.25163 4.72779,1.46295 4.99275,3.8297c6.44046,56.27058 -51.27826,76.72885 -55.59196,78.17783c-1.05698,0.41634 -2.27973,0.45554 -3.42536,0.01945c-59.81381,-22.72108 -52.82934,-78.63337 -52.81173,-78.79413z" class="fil1" id="_191763152"/>
     <path stroke="null" fill-rule="nonzero" fill="#1F1A17" d="m159.92684,30.28825l72.12096,51.2639c2.07717,-5.1562 2.24773,-10.58196 0.96418,-15.74971c-1.85956,-7.48496 -6.74063,-14.44296 -13.31902,-19.35878l-23.87765,-17.84477c-5.55788,-4.15335 -12.70332,-5.56889 -19.72652,-4.73136c-5.81805,0.69379 -11.51642,2.92287 -16.16196,6.42071zm71.04638,61.24748l-80.53779,-57.24578c-0.20288,-0.12369 -0.39777,-0.265 -0.58305,-0.42333c-1.86436,-1.59333 -2.0154,-4.32079 -0.33793,-6.09099c6.58351,-6.93794 15.91427,-11.34018 25.47257,-12.47949c9.28981,-1.1077 18.85322,0.84878 26.44283,6.52069l23.87765,17.84477c8.15026,6.09038 14.21568,14.7821 16.55141,24.18404c2.16389,8.70935 1.15363,18.02133 -4.29482,26.49213l-0.00512,-0.00334c-0.07456,0.11609 -0.15584,0.23005 -0.24353,0.34067c-1.50083,1.90056 -4.3409,2.2859 -6.34222,0.86063z" class="fil1" id="_191761064"/>
     <path stroke="null" fill-rule="nonzero" fill="#1F1A17" d="m212.84642,20.68635c-1.81476,-1.63952 -1.88612,-4.36698 -0.15968,-6.09038c1.72644,-1.72309 4.5985,-1.79116 6.41326,-0.15164c0.03136,0.02796 11.12217,9.79305 -4.06377,23.75433c-1.79524,1.65806 -4.6673,1.62007 -6.41326,-0.08479c-1.74596,-1.70486 -1.70596,-4.43232 0.08928,-6.09038c8.34163,-7.66912 4.14569,-11.32681 4.13417,-11.33714z" class="fil1" id="_191770664"/>
     <path stroke="null" fill="#1F1A17" d="m89.23727,32.56686l14.93793,-8.30183l9.08212,-5.04741l-5.98893,-15.81262l-24.75767,13.75889l2.42789,6.40339l3.56424,9.40771l0.73442,-0.40813zm25.57913,31.73524l16.47045,-9.15334l-4.58922,-12.10691l-16.47045,9.15334l4.58922,12.10691zm4.36234,-25.0234l20.64206,-11.47177l-5.75021,-15.17504l-20.64238,11.47177l5.75053,15.17504z" class="fil2" id="_191778560"/>
    </g>
   </g>
  </g>
 </g>
</svg>